<svg xmlns="http://www.w3.org/2000/svg" xmlns:xlink="http://www.w3.org/1999/xlink" width="238" zoomAndPan="magnify" viewBox="0 0 178.5 32.999998" height="44" preserveAspectRatio="xMidYMid meet" version="1.0"><defs><g/></defs><g fill="#000000" fill-opacity="1"><g transform="translate(18.227263, 20.613475)"><g><path d="M 8.0625 -4.90625 C 8.601562 -4.738281 9.023438 -4.453125 9.328125 -4.046875 C 9.628906 -3.648438 9.78125 -3.160156 9.78125 -2.578125 C 9.78125 -1.753906 9.457031 -1.117188 8.8125 -0.671875 C 8.175781 -0.222656 7.238281 0 6 0 L 1.125 0 L 1.125 -9.453125 L 5.734375 -9.453125 C 6.890625 -9.453125 7.773438 -9.226562 8.390625 -8.78125 C 9.003906 -8.34375 9.3125 -7.75 9.3125 -7 C 9.3125 -6.53125 9.203125 -6.113281 8.984375 -5.75 C 8.765625 -5.394531 8.457031 -5.113281 8.0625 -4.90625 Z M 3.296875 -7.796875 L 3.296875 -5.578125 L 5.46875 -5.578125 C 6.007812 -5.578125 6.414062 -5.671875 6.6875 -5.859375 C 6.96875 -6.046875 7.109375 -6.328125 7.109375 -6.703125 C 7.109375 -7.066406 6.96875 -7.335938 6.6875 -7.515625 C 6.414062 -7.703125 6.007812 -7.796875 5.46875 -7.796875 Z M 5.84375 -1.640625 C 6.414062 -1.640625 6.847656 -1.734375 7.140625 -1.921875 C 7.441406 -2.117188 7.59375 -2.414062 7.59375 -2.8125 C 7.59375 -3.59375 7.007812 -3.984375 5.84375 -3.984375 L 3.296875 -3.984375 L 3.296875 -1.640625 Z M 5.84375 -1.640625 "/></g></g></g><g fill="#000000" fill-opacity="1"><g transform="translate(28.552725, 20.613475)"><g><path d="M 0.96875 -7.265625 L 3.078125 -7.265625 L 3.078125 0 L 0.96875 0 Z M 2.03125 -8.28125 C 1.644531 -8.28125 1.328125 -8.390625 1.078125 -8.609375 C 0.835938 -8.835938 0.71875 -9.117188 0.71875 -9.453125 C 0.71875 -9.785156 0.835938 -10.0625 1.078125 -10.28125 C 1.328125 -10.507812 1.644531 -10.625 2.03125 -10.625 C 2.414062 -10.625 2.726562 -10.515625 2.96875 -10.296875 C 3.21875 -10.078125 3.34375 -9.804688 3.34375 -9.484375 C 3.34375 -9.140625 3.21875 -8.851562 2.96875 -8.625 C 2.726562 -8.394531 2.414062 -8.28125 2.03125 -8.28125 Z M 2.03125 -8.28125 "/></g></g></g><g fill="#000000" fill-opacity="1"><g transform="translate(32.615418, 20.613475)"><g><path d="M 5.390625 -7.375 C 6.285156 -7.375 7.007812 -7.101562 7.5625 -6.5625 C 8.113281 -6.019531 8.390625 -5.21875 8.390625 -4.15625 L 8.390625 0 L 6.296875 0 L 6.296875 -3.828125 C 6.296875 -4.410156 6.164062 -4.84375 5.90625 -5.125 C 5.65625 -5.40625 5.289062 -5.546875 4.8125 -5.546875 C 4.28125 -5.546875 3.859375 -5.378906 3.546875 -5.046875 C 3.234375 -4.722656 3.078125 -4.238281 3.078125 -3.59375 L 3.078125 0 L 0.96875 0 L 0.96875 -7.265625 L 2.984375 -7.265625 L 2.984375 -6.40625 C 3.265625 -6.71875 3.609375 -6.957031 4.015625 -7.125 C 4.429688 -7.289062 4.890625 -7.375 5.390625 -7.375 Z M 5.390625 -7.375 "/></g></g></g><g fill="#000000" fill-opacity="1"><g transform="translate(42.023083, 20.613475)"><g><path d="M 8.375 -10.015625 L 8.375 0 L 6.359375 0 L 6.359375 -0.84375 C 5.835938 -0.207031 5.082031 0.109375 4.09375 0.109375 C 3.40625 0.109375 2.785156 -0.0390625 2.234375 -0.34375 C 1.679688 -0.65625 1.242188 -1.09375 0.921875 -1.65625 C 0.609375 -2.226562 0.453125 -2.882812 0.453125 -3.625 C 0.453125 -4.375 0.609375 -5.03125 0.921875 -5.59375 C 1.242188 -6.164062 1.679688 -6.601562 2.234375 -6.90625 C 2.785156 -7.21875 3.40625 -7.375 4.09375 -7.375 C 5.019531 -7.375 5.742188 -7.082031 6.265625 -6.5 L 6.265625 -10.015625 Z M 4.453125 -1.625 C 4.984375 -1.625 5.421875 -1.804688 5.765625 -2.171875 C 6.117188 -2.535156 6.296875 -3.019531 6.296875 -3.625 C 6.296875 -4.238281 6.117188 -4.726562 5.765625 -5.09375 C 5.421875 -5.457031 4.984375 -5.640625 4.453125 -5.640625 C 3.910156 -5.640625 3.460938 -5.457031 3.109375 -5.09375 C 2.765625 -4.726562 2.59375 -4.238281 2.59375 -3.625 C 2.59375 -3.019531 2.765625 -2.535156 3.109375 -2.171875 C 3.460938 -1.804688 3.910156 -1.625 4.453125 -1.625 Z M 4.453125 -1.625 "/></g></g></g><g fill="#000000" fill-opacity="1"><g transform="translate(51.363234, 20.613475)"><g><path d="M 3.90625 -7.375 C 5.03125 -7.375 5.890625 -7.101562 6.484375 -6.5625 C 7.085938 -6.03125 7.390625 -5.222656 7.390625 -4.140625 L 7.390625 0 L 5.421875 0 L 5.421875 -0.90625 C 5.023438 -0.226562 4.289062 0.109375 3.21875 0.109375 C 2.65625 0.109375 2.164062 0.015625 1.75 -0.171875 C 1.34375 -0.359375 1.03125 -0.617188 0.8125 -0.953125 C 0.601562 -1.285156 0.5 -1.664062 0.5 -2.09375 C 0.5 -2.769531 0.753906 -3.300781 1.265625 -3.6875 C 1.773438 -4.070312 2.5625 -4.265625 3.625 -4.265625 L 5.296875 -4.265625 C 5.296875 -4.722656 5.15625 -5.078125 4.875 -5.328125 C 4.59375 -5.578125 4.175781 -5.703125 3.625 -5.703125 C 3.226562 -5.703125 2.84375 -5.640625 2.46875 -5.515625 C 2.101562 -5.390625 1.789062 -5.222656 1.53125 -5.015625 L 0.765625 -6.5 C 1.160156 -6.769531 1.632812 -6.984375 2.1875 -7.140625 C 2.75 -7.296875 3.320312 -7.375 3.90625 -7.375 Z M 3.734375 -1.3125 C 4.097656 -1.3125 4.414062 -1.394531 4.6875 -1.5625 C 4.96875 -1.726562 5.171875 -1.972656 5.296875 -2.296875 L 5.296875 -3.03125 L 3.84375 -3.03125 C 2.976562 -3.03125 2.546875 -2.75 2.546875 -2.1875 C 2.546875 -1.914062 2.648438 -1.703125 2.859375 -1.546875 C 3.078125 -1.390625 3.367188 -1.3125 3.734375 -1.3125 Z M 3.734375 -1.3125 "/></g></g></g><g fill="#000000" fill-opacity="1"><g transform="translate(59.691084, 20.613475)"><g><path d="M 10.28125 -7.375 C 11.1875 -7.375 11.90625 -7.101562 12.4375 -6.5625 C 12.976562 -6.03125 13.25 -5.226562 13.25 -4.15625 L 13.25 0 L 11.140625 0 L 11.140625 -3.828125 C 11.140625 -4.410156 11.019531 -4.84375 10.78125 -5.125 C 10.539062 -5.40625 10.203125 -5.546875 9.765625 -5.546875 C 9.265625 -5.546875 8.867188 -5.382812 8.578125 -5.0625 C 8.296875 -4.75 8.15625 -4.273438 8.15625 -3.640625 L 8.15625 0 L 6.046875 0 L 6.046875 -3.828125 C 6.046875 -4.972656 5.585938 -5.546875 4.671875 -5.546875 C 4.179688 -5.546875 3.789062 -5.382812 3.5 -5.0625 C 3.21875 -4.75 3.078125 -4.273438 3.078125 -3.640625 L 3.078125 0 L 0.96875 0 L 0.96875 -7.265625 L 2.984375 -7.265625 L 2.984375 -6.421875 C 3.253906 -6.734375 3.582031 -6.96875 3.96875 -7.125 C 4.363281 -7.289062 4.796875 -7.375 5.265625 -7.375 C 5.773438 -7.375 6.238281 -7.269531 6.65625 -7.0625 C 7.070312 -6.863281 7.40625 -6.570312 7.65625 -6.1875 C 7.945312 -6.5625 8.320312 -6.851562 8.78125 -7.0625 C 9.238281 -7.269531 9.738281 -7.375 10.28125 -7.375 Z M 10.28125 -7.375 "/></g></g></g><g fill="#000000" fill-opacity="1"><g transform="translate(73.714793, 20.613475)"><g><path d="M 8.1875 -7.265625 L 4.90625 0.453125 C 4.570312 1.285156 4.15625 1.875 3.65625 2.21875 C 3.164062 2.5625 2.578125 2.734375 1.890625 2.734375 C 1.515625 2.734375 1.140625 2.671875 0.765625 2.546875 C 0.398438 2.429688 0.0976562 2.269531 -0.140625 2.0625 L 0.640625 0.5625 C 0.796875 0.707031 0.976562 0.820312 1.1875 0.90625 C 1.40625 0.988281 1.617188 1.03125 1.828125 1.03125 C 2.109375 1.03125 2.335938 0.957031 2.515625 0.8125 C 2.703125 0.675781 2.867188 0.445312 3.015625 0.125 L 3.03125 0.046875 L -0.109375 -7.265625 L 2.0625 -7.265625 L 4.109375 -2.328125 L 6.15625 -7.265625 Z M 8.1875 -7.265625 "/></g></g></g><g fill="#000000" fill-opacity="1"><g transform="translate(81.786201, 20.613475)"><g/></g></g><g fill="#000000" fill-opacity="1"><g transform="translate(85.605941, 20.613475)"><g><path d="M 4.21875 0.15625 C 3.476562 0.15625 2.757812 0.0546875 2.0625 -0.140625 C 1.363281 -0.347656 0.800781 -0.613281 0.375 -0.9375 L 1.125 -2.578125 C 1.53125 -2.285156 2.007812 -2.046875 2.5625 -1.859375 C 3.125 -1.679688 3.679688 -1.59375 4.234375 -1.59375 C 4.859375 -1.59375 5.316406 -1.679688 5.609375 -1.859375 C 5.910156 -2.046875 6.0625 -2.296875 6.0625 -2.609375 C 6.0625 -2.828125 5.972656 -3.007812 5.796875 -3.15625 C 5.617188 -3.3125 5.394531 -3.429688 5.125 -3.515625 C 4.851562 -3.609375 4.484375 -3.710938 4.015625 -3.828125 C 3.285156 -3.992188 2.691406 -4.160156 2.234375 -4.328125 C 1.773438 -4.503906 1.378906 -4.78125 1.046875 -5.15625 C 0.722656 -5.53125 0.5625 -6.035156 0.5625 -6.671875 C 0.5625 -7.222656 0.707031 -7.71875 1 -8.15625 C 1.300781 -8.601562 1.75 -8.957031 2.34375 -9.21875 C 2.945312 -9.476562 3.679688 -9.609375 4.546875 -9.609375 C 5.148438 -9.609375 5.738281 -9.535156 6.3125 -9.390625 C 6.894531 -9.253906 7.398438 -9.050781 7.828125 -8.78125 L 7.15625 -7.109375 C 6.28125 -7.609375 5.40625 -7.859375 4.53125 -7.859375 C 3.925781 -7.859375 3.472656 -7.757812 3.171875 -7.5625 C 2.878906 -7.363281 2.734375 -7.101562 2.734375 -6.78125 C 2.734375 -6.457031 2.898438 -6.210938 3.234375 -6.046875 C 3.578125 -5.890625 4.097656 -5.738281 4.796875 -5.59375 C 5.515625 -5.414062 6.101562 -5.238281 6.5625 -5.0625 C 7.019531 -4.894531 7.410156 -4.628906 7.734375 -4.265625 C 8.066406 -3.898438 8.234375 -3.398438 8.234375 -2.765625 C 8.234375 -2.222656 8.082031 -1.726562 7.78125 -1.28125 C 7.476562 -0.84375 7.023438 -0.492188 6.421875 -0.234375 C 5.816406 0.0234375 5.082031 0.15625 4.21875 0.15625 Z M 4.21875 0.15625 "/></g></g></g><g fill="#000000" fill-opacity="1"><g transform="translate(94.217245, 20.613475)"><g><path d="M 4.421875 0.109375 C 3.660156 0.109375 2.972656 -0.046875 2.359375 -0.359375 C 1.753906 -0.679688 1.28125 -1.125 0.9375 -1.6875 C 0.601562 -2.257812 0.4375 -2.90625 0.4375 -3.625 C 0.4375 -4.351562 0.601562 -5 0.9375 -5.5625 C 1.28125 -6.125 1.753906 -6.566406 2.359375 -6.890625 C 2.972656 -7.210938 3.660156 -7.375 4.421875 -7.375 C 5.191406 -7.375 5.878906 -7.210938 6.484375 -6.890625 C 7.085938 -6.566406 7.554688 -6.125 7.890625 -5.5625 C 8.234375 -5 8.40625 -4.351562 8.40625 -3.625 C 8.40625 -2.90625 8.234375 -2.257812 7.890625 -1.6875 C 7.554688 -1.125 7.085938 -0.679688 6.484375 -0.359375 C 5.878906 -0.046875 5.191406 0.109375 4.421875 0.109375 Z M 4.421875 -1.625 C 4.960938 -1.625 5.40625 -1.804688 5.75 -2.171875 C 6.101562 -2.535156 6.28125 -3.019531 6.28125 -3.625 C 6.28125 -4.238281 6.101562 -4.726562 5.75 -5.09375 C 5.40625 -5.457031 4.960938 -5.640625 4.421875 -5.640625 C 3.890625 -5.640625 3.445312 -5.457031 3.09375 -5.09375 C 2.738281 -4.726562 2.5625 -4.238281 2.5625 -3.625 C 2.5625 -3.019531 2.738281 -2.535156 3.09375 -2.171875 C 3.445312 -1.804688 3.890625 -1.625 4.421875 -1.625 Z M 4.421875 -1.625 "/></g></g></g><g fill="#000000" fill-opacity="1"><g transform="translate(103.058001, 20.613475)"><g><path d="M 0.96875 -10.015625 L 3.078125 -10.015625 L 3.078125 0 L 0.96875 0 Z M 0.96875 -10.015625 "/></g></g></g><g fill="#000000" fill-opacity="1"><g transform="translate(107.120695, 20.613475)"><g><path d="M 8.28125 -7.265625 L 8.28125 0 L 6.296875 0 L 6.296875 -0.859375 C 6.015625 -0.546875 5.679688 -0.304688 5.296875 -0.140625 C 4.910156 0.0234375 4.488281 0.109375 4.03125 0.109375 C 3.082031 0.109375 2.328125 -0.160156 1.765625 -0.703125 C 1.210938 -1.253906 0.9375 -2.070312 0.9375 -3.15625 L 0.9375 -7.265625 L 3.03125 -7.265625 L 3.03125 -3.46875 C 3.03125 -2.300781 3.523438 -1.71875 4.515625 -1.71875 C 5.015625 -1.71875 5.414062 -1.878906 5.71875 -2.203125 C 6.03125 -2.535156 6.1875 -3.023438 6.1875 -3.671875 L 6.1875 -7.265625 Z M 8.28125 -7.265625 "/></g></g></g><g fill="#000000" fill-opacity="1"><g transform="translate(116.393366, 20.613475)"><g><path d="M 4.484375 0.109375 C 3.710938 0.109375 3.015625 -0.046875 2.390625 -0.359375 C 1.773438 -0.679688 1.296875 -1.125 0.953125 -1.6875 C 0.609375 -2.257812 0.4375 -2.90625 0.4375 -3.625 C 0.4375 -4.351562 0.609375 -5 0.953125 -5.5625 C 1.296875 -6.125 1.773438 -6.566406 2.390625 -6.890625 C 3.015625 -7.210938 3.710938 -7.375 4.484375 -7.375 C 5.242188 -7.375 5.910156 -7.210938 6.484375 -6.890625 C 7.054688 -6.566406 7.472656 -6.109375 7.734375 -5.515625 L 6.109375 -4.640625 C 5.722656 -5.304688 5.175781 -5.640625 4.46875 -5.640625 C 3.914062 -5.640625 3.457031 -5.457031 3.09375 -5.09375 C 2.738281 -4.738281 2.5625 -4.25 2.5625 -3.625 C 2.5625 -3.007812 2.738281 -2.519531 3.09375 -2.15625 C 3.457031 -1.800781 3.914062 -1.625 4.46875 -1.625 C 5.1875 -1.625 5.734375 -1.957031 6.109375 -2.625 L 7.734375 -1.734375 C 7.472656 -1.148438 7.054688 -0.695312 6.484375 -0.375 C 5.910156 -0.0507812 5.242188 0.109375 4.484375 0.109375 Z M 4.484375 0.109375 "/></g></g></g><g fill="#000000" fill-opacity="1"><g transform="translate(124.478285, 20.613475)"><g><path d="M 5.65625 -0.34375 C 5.445312 -0.195312 5.191406 -0.0820312 4.890625 0 C 4.585938 0.0703125 4.269531 0.109375 3.9375 0.109375 C 3.070312 0.109375 2.40625 -0.109375 1.9375 -0.546875 C 1.46875 -0.992188 1.234375 -1.644531 1.234375 -2.5 L 1.234375 -5.484375 L 0.109375 -5.484375 L 0.109375 -7.09375 L 1.234375 -7.09375 L 1.234375 -8.875 L 3.328125 -8.875 L 3.328125 -7.09375 L 5.140625 -7.09375 L 5.140625 -5.484375 L 3.328125 -5.484375 L 3.328125 -2.53125 C 3.328125 -2.21875 3.40625 -1.976562 3.5625 -1.8125 C 3.726562 -1.644531 3.953125 -1.5625 4.234375 -1.5625 C 4.566406 -1.5625 4.851562 -1.65625 5.09375 -1.84375 Z M 5.65625 -0.34375 "/></g></g></g><g fill="#000000" fill-opacity="1"><g transform="translate(130.349629, 20.613475)"><g><path d="M 0.96875 -7.265625 L 3.078125 -7.265625 L 3.078125 0 L 0.96875 0 Z M 2.03125 -8.28125 C 1.644531 -8.28125 1.328125 -8.390625 1.078125 -8.609375 C 0.835938 -8.835938 0.71875 -9.117188 0.71875 -9.453125 C 0.71875 -9.785156 0.835938 -10.0625 1.078125 -10.28125 C 1.328125 -10.507812 1.644531 -10.625 2.03125 -10.625 C 2.414062 -10.625 2.726562 -10.515625 2.96875 -10.296875 C 3.21875 -10.078125 3.34375 -9.804688 3.34375 -9.484375 C 3.34375 -9.140625 3.21875 -8.851562 2.96875 -8.625 C 2.726562 -8.394531 2.414062 -8.28125 2.03125 -8.28125 Z M 2.03125 -8.28125 "/></g></g></g><g fill="#000000" fill-opacity="1"><g transform="translate(134.412323, 20.613475)"><g><path d="M 4.421875 0.109375 C 3.660156 0.109375 2.972656 -0.046875 2.359375 -0.359375 C 1.753906 -0.679688 1.28125 -1.125 0.9375 -1.6875 C 0.601562 -2.257812 0.4375 -2.90625 0.4375 -3.625 C 0.4375 -4.351562 0.601562 -5 0.9375 -5.5625 C 1.28125 -6.125 1.753906 -6.566406 2.359375 -6.890625 C 2.972656 -7.210938 3.660156 -7.375 4.421875 -7.375 C 5.191406 -7.375 5.878906 -7.210938 6.484375 -6.890625 C 7.085938 -6.566406 7.554688 -6.125 7.890625 -5.5625 C 8.234375 -5 8.40625 -4.351562 8.40625 -3.625 C 8.40625 -2.90625 8.234375 -2.257812 7.890625 -1.6875 C 7.554688 -1.125 7.085938 -0.679688 6.484375 -0.359375 C 5.878906 -0.046875 5.191406 0.109375 4.421875 0.109375 Z M 4.421875 -1.625 C 4.960938 -1.625 5.40625 -1.804688 5.75 -2.171875 C 6.101562 -2.535156 6.28125 -3.019531 6.28125 -3.625 C 6.28125 -4.238281 6.101562 -4.726562 5.75 -5.09375 C 5.40625 -5.457031 4.960938 -5.640625 4.421875 -5.640625 C 3.890625 -5.640625 3.445312 -5.457031 3.09375 -5.09375 C 2.738281 -4.726562 2.5625 -4.238281 2.5625 -3.625 C 2.5625 -3.019531 2.738281 -2.535156 3.09375 -2.171875 C 3.445312 -1.804688 3.890625 -1.625 4.421875 -1.625 Z M 4.421875 -1.625 "/></g></g></g><g fill="#000000" fill-opacity="1"><g transform="translate(143.253079, 20.613475)"><g><path d="M 5.390625 -7.375 C 6.285156 -7.375 7.007812 -7.101562 7.5625 -6.5625 C 8.113281 -6.019531 8.390625 -5.21875 8.390625 -4.15625 L 8.390625 0 L 6.296875 0 L 6.296875 -3.828125 C 6.296875 -4.410156 6.164062 -4.84375 5.90625 -5.125 C 5.65625 -5.40625 5.289062 -5.546875 4.8125 -5.546875 C 4.28125 -5.546875 3.859375 -5.378906 3.546875 -5.046875 C 3.234375 -4.722656 3.078125 -4.238281 3.078125 -3.59375 L 3.078125 0 L 0.96875 0 L 0.96875 -7.265625 L 2.984375 -7.265625 L 2.984375 -6.40625 C 3.265625 -6.71875 3.609375 -6.957031 4.015625 -7.125 C 4.429688 -7.289062 4.890625 -7.375 5.390625 -7.375 Z M 5.390625 -7.375 "/></g></g></g><g fill="#000000" fill-opacity="1"><g transform="translate(152.579741, 20.613475)"><g><path d="M 3.421875 0.109375 C 2.816406 0.109375 2.222656 0.0351562 1.640625 -0.109375 C 1.066406 -0.265625 0.609375 -0.453125 0.265625 -0.671875 L 0.96875 -2.1875 C 1.289062 -1.976562 1.679688 -1.804688 2.140625 -1.671875 C 2.597656 -1.546875 3.050781 -1.484375 3.5 -1.484375 C 4.382812 -1.484375 4.828125 -1.703125 4.828125 -2.140625 C 4.828125 -2.347656 4.707031 -2.5 4.46875 -2.59375 C 4.226562 -2.6875 3.851562 -2.765625 3.34375 -2.828125 C 2.75 -2.910156 2.257812 -3.007812 1.875 -3.125 C 1.488281 -3.25 1.15625 -3.457031 0.875 -3.75 C 0.59375 -4.050781 0.453125 -4.472656 0.453125 -5.015625 C 0.453125 -5.472656 0.582031 -5.878906 0.84375 -6.234375 C 1.101562 -6.597656 1.488281 -6.878906 2 -7.078125 C 2.507812 -7.273438 3.113281 -7.375 3.8125 -7.375 C 4.320312 -7.375 4.832031 -7.316406 5.34375 -7.203125 C 5.851562 -7.085938 6.269531 -6.929688 6.59375 -6.734375 L 5.90625 -5.234375 C 5.257812 -5.597656 4.5625 -5.78125 3.8125 -5.78125 C 3.351562 -5.78125 3.007812 -5.71875 2.78125 -5.59375 C 2.5625 -5.46875 2.453125 -5.304688 2.453125 -5.109375 C 2.453125 -4.878906 2.570312 -4.71875 2.8125 -4.625 C 3.0625 -4.539062 3.453125 -4.457031 3.984375 -4.375 C 4.578125 -4.269531 5.0625 -4.160156 5.4375 -4.046875 C 5.8125 -3.941406 6.140625 -3.738281 6.421875 -3.4375 C 6.703125 -3.144531 6.84375 -2.734375 6.84375 -2.203125 C 6.84375 -1.753906 6.707031 -1.351562 6.4375 -1 C 6.164062 -0.644531 5.769531 -0.367188 5.25 -0.171875 C 4.738281 0.015625 4.128906 0.109375 3.421875 0.109375 Z M 3.421875 0.109375 "/></g></g></g></svg>