<svg xmlns="http://www.w3.org/2000/svg" xmlns:xlink="http://www.w3.org/1999/xlink" width="40" zoomAndPan="magnify" viewBox="0 0 30 30.000001" height="40" preserveAspectRatio="xMidYMid meet" version="1.0"><defs><g/></defs><g fill="#000000" fill-opacity="1"><g transform="translate(2.692984, 19.819283)"><g><path d="M 10.46875 -6.390625 C 11.175781 -6.160156 11.726562 -5.785156 12.125 -5.265625 C 12.519531 -4.742188 12.71875 -4.101562 12.71875 -3.34375 C 12.71875 -2.269531 12.300781 -1.441406 11.46875 -0.859375 C 10.632812 -0.285156 9.414062 0 7.8125 0 L 1.453125 0 L 1.453125 -12.28125 L 7.453125 -12.28125 C 8.953125 -12.28125 10.101562 -11.992188 10.90625 -11.421875 C 11.707031 -10.847656 12.109375 -10.070312 12.109375 -9.09375 C 12.109375 -8.488281 11.960938 -7.953125 11.671875 -7.484375 C 11.390625 -7.023438 10.988281 -6.660156 10.46875 -6.390625 Z M 4.28125 -10.140625 L 4.28125 -7.25 L 7.109375 -7.25 C 7.804688 -7.25 8.335938 -7.367188 8.703125 -7.609375 C 9.066406 -7.859375 9.25 -8.222656 9.25 -8.703125 C 9.25 -9.179688 9.066406 -9.539062 8.703125 -9.78125 C 8.335938 -10.019531 7.804688 -10.140625 7.109375 -10.140625 Z M 7.59375 -2.140625 C 8.34375 -2.140625 8.90625 -2.257812 9.28125 -2.5 C 9.664062 -2.75 9.859375 -3.132812 9.859375 -3.65625 C 9.859375 -4.664062 9.101562 -5.171875 7.59375 -5.171875 L 4.28125 -5.171875 L 4.28125 -2.140625 Z M 7.59375 -2.140625 "/></g></g></g><g fill="#075db8" fill-opacity="1"><g transform="translate(16.109063, 19.819283)"><g><path d="M 5.484375 0.203125 C 4.515625 0.203125 3.578125 0.0703125 2.671875 -0.1875 C 1.765625 -0.445312 1.035156 -0.785156 0.484375 -1.203125 L 1.453125 -3.34375 C 1.984375 -2.957031 2.609375 -2.648438 3.328125 -2.421875 C 4.054688 -2.191406 4.785156 -2.078125 5.515625 -2.078125 C 6.316406 -2.078125 6.910156 -2.195312 7.296875 -2.4375 C 7.679688 -2.675781 7.875 -2.992188 7.875 -3.390625 C 7.875 -3.679688 7.757812 -3.921875 7.53125 -4.109375 C 7.300781 -4.304688 7.007812 -4.460938 6.65625 -4.578125 C 6.300781 -4.691406 5.820312 -4.820312 5.21875 -4.96875 C 4.28125 -5.1875 3.507812 -5.40625 2.90625 -5.625 C 2.3125 -5.851562 1.800781 -6.210938 1.375 -6.703125 C 0.945312 -7.191406 0.734375 -7.847656 0.734375 -8.671875 C 0.734375 -9.378906 0.925781 -10.019531 1.3125 -10.59375 C 1.695312 -11.175781 2.28125 -11.640625 3.0625 -11.984375 C 3.84375 -12.328125 4.789062 -12.5 5.90625 -12.5 C 6.695312 -12.5 7.460938 -12.40625 8.203125 -12.21875 C 8.953125 -12.03125 9.609375 -11.757812 10.171875 -11.40625 L 9.296875 -9.25 C 8.160156 -9.894531 7.023438 -10.21875 5.890625 -10.21875 C 5.097656 -10.21875 4.507812 -10.085938 4.125 -9.828125 C 3.75 -9.566406 3.5625 -9.226562 3.5625 -8.8125 C 3.5625 -8.382812 3.78125 -8.066406 4.21875 -7.859375 C 4.65625 -7.660156 5.328125 -7.460938 6.234375 -7.265625 C 7.171875 -7.046875 7.9375 -6.820312 8.53125 -6.59375 C 9.125 -6.375 9.632812 -6.023438 10.0625 -5.546875 C 10.488281 -5.066406 10.703125 -4.414062 10.703125 -3.59375 C 10.703125 -2.894531 10.503906 -2.253906 10.109375 -1.671875 C 9.722656 -1.097656 9.132812 -0.640625 8.34375 -0.296875 C 7.5625 0.0351562 6.609375 0.203125 5.484375 0.203125 Z M 5.484375 0.203125 "/></g></g></g></svg>